<mxfile host="65bd71144e">
    <diagram id="waZzFHGL37r4si0MN0PD" name="Page-1">
        <mxGraphModel dx="2828" dy="974" grid="1" gridSize="10" guides="1" tooltips="1" connect="1" arrows="1" fold="1" page="1" pageScale="1" pageWidth="850" pageHeight="1100" math="0" shadow="0">
            <root>
                <mxCell id="0"/>
                <mxCell id="1" parent="0"/>
                <mxCell id="38" value="" style="shape=ext;double=1;rounded=1;whiteSpace=wrap;html=1;strokeColor=#FFFF99;fontSize=12;fillColor=none;arcSize=3;" parent="1" vertex="1">
                    <mxGeometry x="10" y="10" width="1070" height="960" as="geometry"/>
                </mxCell>
                <mxCell id="4" value="Â²" style="rounded=1;whiteSpace=wrap;html=1;fillColor=none;fontColor=#000000;strokeColor=#C73500;strokeWidth=2;perimeterSpacing=0;arcSize=2;" parent="1" vertex="1">
                    <mxGeometry x="40" y="40" width="1000" height="900" as="geometry"/>
                </mxCell>
                <mxCell id="91" value="" style="rounded=1;whiteSpace=wrap;html=1;strokeWidth=2;perimeterSpacing=0;arcSize=5;fillColor=none;strokeColor=#006EAF;fontColor=#ffffff;" parent="1" vertex="1">
                    <mxGeometry x="80" y="420" width="920" height="110" as="geometry"/>
                </mxCell>
                <mxCell id="144" value="" style="rounded=1;whiteSpace=wrap;html=1;strokeWidth=2;perimeterSpacing=0;arcSize=10;fillColor=none;strokeColor=#006EAF;fontColor=#ffffff;" parent="1" vertex="1">
                    <mxGeometry x="880" y="540" width="110" height="110" as="geometry"/>
                </mxCell>
                <mxCell id="139" value="" style="rounded=1;whiteSpace=wrap;html=1;strokeWidth=2;perimeterSpacing=0;arcSize=10;fillColor=none;strokeColor=#006EAF;fontColor=#ffffff;" parent="1" vertex="1">
                    <mxGeometry x="80" y="540" width="410" height="110" as="geometry"/>
                </mxCell>
                <mxCell id="117" value="" style="group" parent="1" vertex="1" connectable="0">
                    <mxGeometry x="80" y="80" width="480" height="320" as="geometry"/>
                </mxCell>
                <mxCell id="114" value="" style="group" parent="117" vertex="1" connectable="0">
                    <mxGeometry width="480" height="320" as="geometry"/>
                </mxCell>
                <mxCell id="67" value="" style="group" parent="114" vertex="1" connectable="0">
                    <mxGeometry x="10" y="10" width="220" height="40" as="geometry"/>
                </mxCell>
                <mxCell id="29" value="" style="aspect=fixed;html=1;points=[];align=center;image;fontSize=12;image=img/lib/azure2/networking/Virtual_Networks.svg;rounded=1;strokeWidth=2;fontFamily=Lucida Console;fontColor=#CE9178;fillColor=#1A1A1A;gradientColor=none;" parent="67" vertex="1">
                    <mxGeometry width="67" height="40" as="geometry"/>
                </mxCell>
                <mxCell id="30" value="&lt;div style=&quot;font-family: Consolas, &amp;quot;Courier New&amp;quot;, monospace; font-size: 14px; line-height: 19px;&quot;&gt;&lt;span style=&quot;&quot;&gt;System-network-1&lt;br&gt;&amp;nbsp;&lt;/span&gt;&lt;span style=&quot;&quot;&gt;192.168.0.0/24&lt;/span&gt;&lt;/div&gt;" style="text;html=1;strokeColor=#006EAF;fillColor=#1A1A1A;align=center;verticalAlign=middle;whiteSpace=wrap;rounded=1;strokeWidth=2;fontColor=#CE9178;arcSize=25;labelBackgroundColor=none;" parent="67" vertex="1">
                    <mxGeometry x="74" width="146" height="40" as="geometry"/>
                </mxCell>
                <mxCell id="19" value="" style="rounded=1;whiteSpace=wrap;html=1;strokeWidth=2;perimeterSpacing=0;arcSize=5;fillColor=none;strokeColor=#006EAF;fontColor=#ffffff;" parent="114" vertex="1">
                    <mxGeometry width="480" height="320" as="geometry"/>
                </mxCell>
                <mxCell id="113" value="" style="group" parent="117" vertex="1" connectable="0">
                    <mxGeometry x="10" y="120" width="460" height="190" as="geometry"/>
                </mxCell>
                <mxCell id="115" value="" style="group" parent="113" vertex="1" connectable="0">
                    <mxGeometry width="460" height="190" as="geometry"/>
                </mxCell>
                <mxCell id="111" value="" style="group" parent="115" vertex="1" connectable="0">
                    <mxGeometry x="240" width="220" height="190" as="geometry"/>
                </mxCell>
                <mxCell id="37" value="" style="rounded=1;whiteSpace=wrap;html=1;strokeWidth=2;perimeterSpacing=0;arcSize=5;fillColor=none;strokeColor=#006EAF;fontColor=#ffffff;" parent="111" vertex="1">
                    <mxGeometry width="220" height="190" as="geometry"/>
                </mxCell>
                <mxCell id="70" value="&lt;div style=&quot;font-family: Consolas, &amp;quot;Courier New&amp;quot;, monospace; font-size: 14px; line-height: 19px;&quot;&gt;&lt;span style=&quot;&quot;&gt;Subnet-1&lt;br&gt;&lt;/span&gt;&lt;div style=&quot;color: rgb(212, 212, 212); line-height: 19px;&quot;&gt;&lt;span style=&quot;color: #ce9178;&quot;&gt;192.168.0.128/25&lt;/span&gt;&lt;/div&gt;&lt;/div&gt;" style="text;html=1;strokeColor=#006EAF;fillColor=#1A1A1A;align=center;verticalAlign=middle;whiteSpace=wrap;rounded=1;strokeWidth=2;fontColor=#CE9178;arcSize=35;labelBackgroundColor=none;" parent="111" vertex="1">
                    <mxGeometry x="10" y="10" width="140" height="40" as="geometry"/>
                </mxCell>
                <mxCell id="112" value="" style="group" parent="115" vertex="1" connectable="0">
                    <mxGeometry width="220" height="190" as="geometry"/>
                </mxCell>
                <mxCell id="36" value="" style="rounded=1;whiteSpace=wrap;html=1;strokeWidth=2;perimeterSpacing=0;arcSize=5;fillColor=none;strokeColor=#006EAF;fontColor=#ffffff;" parent="112" vertex="1">
                    <mxGeometry width="220" height="190" as="geometry"/>
                </mxCell>
                <mxCell id="46" value="&lt;div style=&quot;font-size: 14px; line-height: 19px;&quot;&gt;&lt;span style=&quot;font-family: Consolas, &amp;quot;Courier New&amp;quot;, monospace;&quot;&gt;Subnet-1&lt;br&gt;&lt;/span&gt;&lt;div style=&quot;line-height: 19px;&quot;&gt;&lt;font style=&quot;&quot; face=&quot;Consolas, Courier New, monospace&quot;&gt;192.168.0.0/25&lt;/font&gt;&lt;/div&gt;&lt;/div&gt;" style="text;html=1;strokeColor=#006EAF;fillColor=#1A1A1A;align=center;verticalAlign=middle;whiteSpace=wrap;rounded=1;strokeWidth=2;fontColor=#CE9178;arcSize=35;labelBackgroundColor=none;" parent="112" vertex="1">
                    <mxGeometry x="10" y="10" width="140" height="40" as="geometry"/>
                </mxCell>
                <mxCell id="94" value="" style="endArrow=classic;html=1;fontFamily=Lucida Console;fontSize=14;fontColor=#CE9178;exitX=0.5;exitY=1;exitDx=0;exitDy=0;exitPerimeter=0;" parent="1" source="68" target="73" edge="1">
                    <mxGeometry width="50" height="50" relative="1" as="geometry">
                        <mxPoint x="280" y="420" as="sourcePoint"/>
                        <mxPoint x="330" y="370" as="targetPoint"/>
                    </mxGeometry>
                </mxCell>
                <mxCell id="5" value="&lt;font style=&quot;font-size: 14px;&quot;&gt;West Europe&lt;/font&gt;" style="text;strokeColor=#C73500;fillColor=#1A1A1A;align=center;verticalAlign=middle;whiteSpace=wrap;rounded=1;strokeWidth=2;fontColor=#CE9178;gradientColor=none;arcSize=43;labelBackgroundColor=none;fontFamily=Consolas, &quot;Courier New&quot;, monospace;html=1;" parent="1" vertex="1">
                    <mxGeometry x="40" y="40" width="120" height="30" as="geometry"/>
                </mxCell>
                <mxCell id="125" value="" style="group" parent="1" connectable="0" vertex="1">
                    <mxGeometry x="405" y="734" width="230" height="175.39999999999998" as="geometry"/>
                </mxCell>
                <mxCell id="33" value="" style="shape=ext;double=1;rounded=1;whiteSpace=wrap;html=1;strokeColor=#001DBC;fontSize=12;fillColor=none;" parent="125" vertex="1">
                    <mxGeometry x="14" y="25.399999999999977" width="216" height="150" as="geometry"/>
                </mxCell>
                <mxCell id="15" value="" style="aspect=fixed;html=1;points=[];align=center;image;fontSize=12;image=img/lib/azure2/identity/Users.svg;" parent="125" vertex="1">
                    <mxGeometry x="150" y="55.39999999999998" width="64" height="70" as="geometry"/>
                </mxCell>
                <mxCell id="18" value="Barack Afritt" style="aspect=fixed;html=1;points=[];align=center;image;fontSize=12;image=img/lib/azure2/identity/Users.svg;fontColor=#CE9178;" parent="125" vertex="1">
                    <mxGeometry x="40" y="55.39999999999998" width="64" height="70" as="geometry"/>
                </mxCell>
                <mxCell id="32" value="" style="shadow=0;dashed=0;html=1;strokeColor=none;fillColor=#4495D1;labelPosition=center;verticalLabelPosition=bottom;verticalAlign=top;align=center;outlineConnect=0;shape=mxgraph.veeam.2d.group;fontSize=12;" parent="125" vertex="1">
                    <mxGeometry width="53.6" height="60.4" as="geometry"/>
                </mxCell>
                <mxCell id="98" value="Annie-Zette Auffray" style="text;html=1;strokeColor=none;fillColor=none;align=center;verticalAlign=middle;whiteSpace=wrap;rounded=0;labelBackgroundColor=#18141D;fontSize=12;fontColor=#CE9178;" parent="125" vertex="1">
                    <mxGeometry x="152" y="135.39999999999998" width="60" height="30" as="geometry"/>
                </mxCell>
                <mxCell id="116" value="&lt;div style=&quot;font-family: Consolas, &amp;quot;Courier New&amp;quot;, monospace; font-size: 14px; line-height: 19px;&quot;&gt;&lt;font color=&quot;#ce9178&quot;&gt;Administratif&lt;/font&gt;&lt;/div&gt;" style="text;html=1;strokeColor=#001DBC;fillColor=#1A1A1A;align=center;verticalAlign=middle;whiteSpace=wrap;rounded=1;strokeWidth=2;fontColor=#CE9178;arcSize=35;labelBackgroundColor=none;gradientColor=none;" parent="125" vertex="1">
                    <mxGeometry x="58" y="29.600000000000023" width="110" height="20" as="geometry"/>
                </mxCell>
                <mxCell id="21" value="" style="rounded=1;whiteSpace=wrap;html=1;strokeWidth=2;perimeterSpacing=0;arcSize=5;fillColor=none;strokeColor=#006EAF;fontColor=#ffffff;" parent="1" vertex="1">
                    <mxGeometry x="640" y="80" width="360" height="320" as="geometry"/>
                </mxCell>
                <mxCell id="39" value="" style="rounded=1;whiteSpace=wrap;html=1;strokeWidth=2;perimeterSpacing=0;arcSize=5;fillColor=none;strokeColor=#006EAF;fontColor=#ffffff;" parent="1" vertex="1">
                    <mxGeometry x="650" y="200" width="340" height="190" as="geometry"/>
                </mxCell>
                <mxCell id="45" value="" style="aspect=fixed;html=1;points=[];align=center;image;fontSize=12;image=img/lib/azure2/general/Subscriptions.svg;strokeColor=#FFFF99;fillColor=none;" parent="1" vertex="1">
                    <mxGeometry y="9" width="44" height="71" as="geometry"/>
                </mxCell>
                <mxCell id="48" value="&lt;font color=&quot;#ce9178&quot;&gt;KeyVault1&lt;/font&gt;" style="aspect=fixed;html=1;points=[];align=center;image;fontSize=12;image=img/lib/azure2/security/Key_Vaults.svg;strokeColor=#FFFF99;fillColor=none;" parent="1" vertex="1">
                    <mxGeometry x="700" y="788.4" width="68" height="68" as="geometry"/>
                </mxCell>
                <mxCell id="66" value="" style="group;labelBackgroundColor=none;verticalAlign=middle;" parent="1" vertex="1" connectable="0">
                    <mxGeometry x="650" y="90" width="330" height="40" as="geometry"/>
                </mxCell>
                <mxCell id="63" value="" style="aspect=fixed;html=1;points=[];align=center;image;fontSize=12;image=img/lib/azure2/networking/Virtual_Networks.svg;rounded=1;strokeWidth=2;fontFamily=Lucida Console;fontColor=#CE9178;fillColor=#1A1A1A;gradientColor=none;" parent="66" vertex="1">
                    <mxGeometry width="67" height="40" as="geometry"/>
                </mxCell>
                <mxCell id="64" value="&lt;div style=&quot;font-size: 14px; line-height: 19px;&quot;&gt;&lt;div style=&quot;color: rgb(212, 212, 212); background-color: rgb(30, 30, 30); line-height: 19px;&quot;&gt;&lt;span style=&quot;color: rgb(206, 145, 120);&quot;&gt;&lt;font face=&quot;Consolas, Courier New, monospace&quot;&gt;ConfidentialServices-network-1&lt;/font&gt;&lt;/span&gt;&lt;/div&gt;&lt;span style=&quot;background-color: rgb(30, 30, 30);&quot;&gt;&lt;font face=&quot;Consolas, Courier New, monospace&quot;&gt;10.0.0.0/16&lt;/font&gt;&lt;/span&gt;&lt;/div&gt;" style="text;html=1;strokeColor=#006EAF;fillColor=#1A1A1A;align=center;verticalAlign=middle;whiteSpace=wrap;rounded=1;strokeWidth=2;fontColor=#CE9178;arcSize=25;labelBackgroundColor=none;" parent="66" vertex="1">
                    <mxGeometry x="80" width="250" height="40" as="geometry"/>
                </mxCell>
                <mxCell id="104" value="" style="edgeStyle=none;html=1;fontFamily=Lucida Console;fontSize=14;fontColor=#CE9178;startArrow=none;startFill=0;" parent="1" source="69" target="103" edge="1">
                    <mxGeometry relative="1" as="geometry"/>
                </mxCell>
                <mxCell id="69" value="&lt;font&gt;ProductionVM1-NIC&lt;/font&gt;" style="aspect=fixed;html=1;points=[];align=center;image;fontSize=12;image=img/lib/azure2/networking/Network_Interfaces.svg;rounded=1;labelBackgroundColor=none;strokeWidth=2;fontFamily=Lucida Console;fontColor=#CE9178;fillColor=#1A1A1A;gradientColor=none;" parent="1" vertex="1">
                    <mxGeometry x="786" y="260" width="68" height="60" as="geometry"/>
                </mxCell>
                <mxCell id="71" value="&lt;div style=&quot;font-family: Consolas, &amp;quot;Courier New&amp;quot;, monospace; font-size: 14px; line-height: 19px;&quot;&gt;&lt;span style=&quot;&quot;&gt;Subnet-1&lt;br&gt;&lt;/span&gt;&lt;div style=&quot;color: rgb(212, 212, 212); line-height: 19px;&quot;&gt;&lt;span style=&quot;color: rgb(206, 145, 120); background-color: rgb(30, 30, 30);&quot;&gt;10.0.0.0/16&lt;/span&gt;&lt;br&gt;&lt;/div&gt;&lt;/div&gt;" style="text;html=1;strokeColor=#006EAF;fillColor=#1A1A1A;align=center;verticalAlign=middle;whiteSpace=wrap;rounded=1;strokeWidth=2;fontColor=#CE9178;arcSize=35;labelBackgroundColor=none;" parent="1" vertex="1">
                    <mxGeometry x="660" y="210" width="130" height="40" as="geometry"/>
                </mxCell>
                <mxCell id="72" value="Peering" style="edgeStyle=none;html=1;fontFamily=Lucida Console;fontSize=14;fontColor=#CE9178;entryX=0;entryY=0.25;entryDx=0;entryDy=0;startArrow=classic;startFill=1;fillColor=#1ba1e2;strokeColor=#006EAF;labelPosition=center;verticalLabelPosition=bottom;align=center;verticalAlign=top;" parent="1" target="21" edge="1">
                    <mxGeometry relative="1" as="geometry">
                        <mxPoint x="560" y="160" as="sourcePoint"/>
                        <mxPoint x="600" y="160" as="targetPoint"/>
                    </mxGeometry>
                </mxCell>
                <mxCell id="74" value="&lt;span style=&quot;font-weight: normal;&quot;&gt;Public IP&lt;/span&gt;" style="aspect=fixed;html=1;points=[];align=center;image;fontSize=12;image=img/lib/azure2/networking/Public_IP_Addresses.svg;rounded=1;labelBackgroundColor=none;strokeWidth=2;fontFamily=Lucida Console;fontColor=#CE9178;fillColor=#1A1A1A;gradientColor=none;fontStyle=1" parent="1" vertex="1">
                    <mxGeometry x="-90" y="288" width="65" height="52" as="geometry"/>
                </mxCell>
                <mxCell id="101" value="" style="edgeStyle=none;html=1;fontFamily=Lucida Console;fontSize=14;fontColor=#CE9178;startArrow=none;startFill=0;" parent="1" source="100" target="74" edge="1">
                    <mxGeometry relative="1" as="geometry"/>
                </mxCell>
                <mxCell id="100" value="Remote User" style="aspect=fixed;html=1;points=[];align=center;image;fontSize=12;image=img/lib/azure2/compute/Virtual_Machines_Classic.svg;rounded=1;labelBackgroundColor=none;strokeWidth=2;fontFamily=Lucida Console;fontColor=#CE9178;fillColor=#1A1A1A;gradientColor=none;" parent="1" vertex="1">
                    <mxGeometry x="-250" y="282" width="69" height="64" as="geometry"/>
                </mxCell>
                <mxCell id="105" value="" style="aspect=fixed;html=1;points=[];align=center;image;fontSize=12;image=img/lib/azure2/networking/Virtual_Router.svg;rounded=1;labelBackgroundColor=none;strokeWidth=2;fontFamily=Lucida Console;fontColor=#CE9178;fillColor=#1A1A1A;gradientColor=none;" parent="1" vertex="1">
                    <mxGeometry x="566" y="86" width="68" height="68" as="geometry"/>
                </mxCell>
                <mxCell id="108" value="" style="group" parent="1" vertex="1" connectable="0">
                    <mxGeometry x="166" y="264" width="100" height="80" as="geometry"/>
                </mxCell>
                <mxCell id="68" value="JumpStationVM1-NIC&amp;nbsp;&lt;br&gt;with security rules" style="aspect=fixed;html=1;points=[];align=center;image;fontSize=12;image=img/lib/azure2/networking/Network_Interfaces.svg;rounded=1;labelBackgroundColor=none;strokeWidth=2;fontFamily=Lucida Console;fontColor=#CE9178;fillColor=#1A1A1A;gradientColor=none;" parent="108" vertex="1">
                    <mxGeometry y="20" width="68" height="60" as="geometry"/>
                </mxCell>
                <mxCell id="107" value="" style="aspect=fixed;html=1;points=[];align=center;image;fontSize=12;image=img/lib/azure2/security/Conditional_Access.svg;rounded=1;labelBackgroundColor=none;strokeWidth=2;fontFamily=Consolas, &quot;Courier New&quot;, monospace;fontColor=#CE9178;fillColor=#1A1A1A;gradientColor=none;" parent="108" vertex="1">
                    <mxGeometry x="44" width="56.00000000000001" height="68" as="geometry"/>
                </mxCell>
                <mxCell id="121" value="" style="endArrow=classic;html=1;fontFamily=Consolas, &quot;Courier New&quot;, monospace;fontSize=14;fontColor=#CE9178;exitX=0.996;exitY=0.498;exitDx=0;exitDy=0;exitPerimeter=0;entryX=-0.005;entryY=0.502;entryDx=0;entryDy=0;entryPerimeter=0;" parent="1" source="74" target="68" edge="1">
                    <mxGeometry width="50" height="50" relative="1" as="geometry">
                        <mxPoint x="-20" y="304" as="sourcePoint"/>
                        <mxPoint x="10" y="410" as="targetPoint"/>
                    </mxGeometry>
                </mxCell>
                <mxCell id="127" value="confidentiel" style="aspect=fixed;html=1;points=[];align=center;image;fontSize=12;image=img/lib/azure2/storage/Azure_Fileshare.svg;rounded=1;labelBackgroundColor=none;strokeColor=#001DBC;strokeWidth=2;fontFamily=Consolas, &quot;Courier New&quot;, monospace;fontColor=#CE9178;fillColor=#1A1A1A;gradientColor=none;" parent="1" vertex="1">
                    <mxGeometry x="390" y="550" width="68" height="68" as="geometry"/>
                </mxCell>
                <mxCell id="130" value="" style="aspect=fixed;html=1;points=[];align=center;image;fontSize=12;image=img/lib/azure2/storage/Storage_Accounts.svg;rounded=1;labelBackgroundColor=none;strokeColor=#001DBC;strokeWidth=2;fontFamily=Consolas, &quot;Courier New&quot;, monospace;fontColor=#CE9178;fillColor=#1A1A1A;gradientColor=none;" parent="1" vertex="1">
                    <mxGeometry x="90" y="550" width="65" height="52" as="geometry"/>
                </mxCell>
                <mxCell id="73" value="JumpStationVM1" style="aspect=fixed;html=1;points=[];align=center;image;fontSize=12;image=img/lib/azure2/compute/Virtual_Machine.svg;rounded=1;labelBackgroundColor=none;strokeWidth=2;fontFamily=Lucida Console;fontColor=#CE9178;fillColor=#1A1A1A;gradientColor=none;" parent="1" vertex="1">
                    <mxGeometry x="165.5" y="440" width="69" height="64" as="geometry"/>
                </mxCell>
                <mxCell id="141" value="&lt;div style=&quot;font-family: Consolas, &amp;quot;Courier New&amp;quot;, monospace; font-size: 14px; line-height: 19px;&quot;&gt;Storage Account&lt;br&gt;&lt;div style=&quot;color: rgb(212, 212, 212); line-height: 19px;&quot;&gt;&lt;span style=&quot;color: #ce9178;&quot;&gt;confidentiel00000000&lt;/span&gt;&lt;/div&gt;&lt;/div&gt;" style="text;html=1;strokeColor=#006EAF;fillColor=#1A1A1A;align=center;verticalAlign=middle;whiteSpace=wrap;rounded=1;strokeWidth=2;fontColor=#CE9178;arcSize=35;labelBackgroundColor=none;" parent="1" vertex="1">
                    <mxGeometry x="160" y="550" width="180" height="40" as="geometry"/>
                </mxCell>
                <mxCell id="142" value="" style="endArrow=classic;html=1;fontFamily=Consolas, &quot;Courier New&quot;, monospace;fontSize=14;fontColor=#CE9178;exitX=0.501;exitY=0.997;exitDx=0;exitDy=0;exitPerimeter=0;entryX=1.005;entryY=0.497;entryDx=0;entryDy=0;entryPerimeter=0;edgeStyle=orthogonalEdgeStyle;" parent="1" source="103" target="127" edge="1">
                    <mxGeometry width="50" height="50" relative="1" as="geometry">
                        <mxPoint x="650" y="680" as="sourcePoint"/>
                        <mxPoint x="700" y="630" as="targetPoint"/>
                    </mxGeometry>
                </mxCell>
                <mxCell id="143" value="" style="group" parent="1" connectable="0" vertex="1">
                    <mxGeometry x="47" y="681" width="615" height="245.70000000000005" as="geometry"/>
                </mxCell>
                <mxCell id="140" value="" style="group" parent="143" connectable="0" vertex="1">
                    <mxGeometry width="615" height="245.70000000000005" as="geometry"/>
                </mxCell>
                <mxCell id="131" value="" style="rounded=1;whiteSpace=wrap;html=1;strokeWidth=2;perimeterSpacing=0;arcSize=5;fillColor=none;strokeColor=#006EAF;fontColor=#ffffff;" parent="140" vertex="1">
                    <mxGeometry x="35" y="35.700000000000045" width="579" height="210" as="geometry"/>
                </mxCell>
                <mxCell id="126" value="" style="aspect=fixed;html=1;points=[];align=center;image;fontSize=12;image=img/lib/azure2/identity/Azure_Active_Directory.svg;labelBackgroundColor=#18141D;strokeColor=#FFFF99;fontColor=#CE9178;fillColor=default;" parent="140" vertex="1">
                    <mxGeometry width="70" height="64" as="geometry"/>
                </mxCell>
                <mxCell id="124" value="" style="group" parent="143" connectable="0" vertex="1">
                    <mxGeometry x="68" y="53" width="280" height="175.39999999999998" as="geometry"/>
                </mxCell>
                <mxCell id="28" value="" style="shape=ext;double=1;rounded=1;fontSize=12;fillColor=none;fontColor=#ffffff;strokeColor=#001DBC;whiteSpace=wrap;html=1;" parent="124" vertex="1">
                    <mxGeometry x="20" y="25.399999999999977" width="260" height="150" as="geometry"/>
                </mxCell>
                <mxCell id="16" value="Sarah Croche" style="aspect=fixed;html=1;points=[];align=center;image;fontSize=12;image=img/lib/azure2/identity/Users.svg;fontColor=#CE9178;" parent="124" vertex="1">
                    <mxGeometry x="124" y="55.39999999999998" width="64" height="70" as="geometry"/>
                </mxCell>
                <mxCell id="17" value="" style="aspect=fixed;html=1;points=[];align=center;image;fontSize=12;image=img/lib/azure2/identity/Users.svg;fontColor=#CE9178;" parent="124" vertex="1">
                    <mxGeometry x="200" y="55.39999999999998" width="64" height="70" as="geometry"/>
                </mxCell>
                <mxCell id="31" value="" style="shadow=0;dashed=0;html=1;strokeColor=none;fillColor=#4495D1;labelPosition=center;verticalLabelPosition=bottom;verticalAlign=top;align=center;outlineConnect=0;shape=mxgraph.veeam.2d.group;fontSize=12;" parent="124" vertex="1">
                    <mxGeometry width="53.6" height="60.4" as="geometry"/>
                </mxCell>
                <mxCell id="97" value="Hubert Bonisseur-Delabath" style="text;html=1;strokeColor=none;fillColor=none;align=center;verticalAlign=middle;whiteSpace=wrap;rounded=0;labelBackgroundColor=#18141D;fontSize=12;fontColor=#CE9178;" parent="124" vertex="1">
                    <mxGeometry x="198" y="135.39999999999998" width="60" height="30" as="geometry"/>
                </mxCell>
                <mxCell id="109" value="&lt;div style=&quot;font-family: Consolas, &amp;quot;Courier New&amp;quot;, monospace; font-size: 14px; line-height: 19px;&quot;&gt;&lt;font color=&quot;#ce9178&quot;&gt;IT&lt;/font&gt;&lt;/div&gt;" style="text;html=1;strokeColor=#001DBC;fillColor=#1A1A1A;align=center;verticalAlign=middle;whiteSpace=wrap;rounded=1;strokeWidth=2;fontColor=#CE9178;arcSize=35;labelBackgroundColor=none;" parent="124" vertex="1">
                    <mxGeometry x="58" y="29.600000000000023" width="50" height="20" as="geometry"/>
                </mxCell>
                <mxCell id="147" value="Jean Cive" style="aspect=fixed;html=1;points=[];align=center;image;fontSize=12;image=img/lib/azure2/identity/Users.svg;fontColor=#CE9178;" parent="124" vertex="1">
                    <mxGeometry x="44" y="55.39999999999998" width="64" height="70" as="geometry"/>
                </mxCell>
                <mxCell id="133" value="Recovery vault" style="aspect=fixed;html=1;points=[];align=center;image;fontSize=12;image=img/lib/azure2/migrate/Recovery_Services_Vaults.svg;rounded=1;labelBackgroundColor=none;strokeColor=#001DBC;strokeWidth=2;fontFamily=Consolas, &quot;Courier New&quot;, monospace;fontColor=#CE9178;fillColor=#1A1A1A;gradientColor=none;" parent="1" vertex="1">
                    <mxGeometry x="900" y="550" width="69" height="60" as="geometry"/>
                </mxCell>
                <mxCell id="146" value="" style="endArrow=classic;html=1;fontFamily=Consolas, &quot;Courier New&quot;, monospace;fontSize=14;fontColor=#CE9178;edgeStyle=orthogonalEdgeStyle;" parent="1" source="103" target="133" edge="1">
                    <mxGeometry width="50" height="50" relative="1" as="geometry">
                        <mxPoint x="780" y="610" as="sourcePoint"/>
                        <mxPoint x="830" y="560" as="targetPoint"/>
                        <Array as="points">
                            <mxPoint x="934" y="470"/>
                        </Array>
                    </mxGeometry>
                </mxCell>
                <mxCell id="149" value="&lt;font color=&quot;#ce9178&quot; face=&quot;Consolas, Courier New, monospace&quot; style=&quot;font-size: 9px;&quot;&gt;Production-backup-policy&lt;/font&gt;" style="edgeLabel;html=1;align=center;verticalAlign=middle;resizable=0;points=[];fontSize=9;" parent="146" vertex="1" connectable="0">
                    <mxGeometry x="-0.1669" y="4" relative="1" as="geometry">
                        <mxPoint as="offset"/>
                    </mxGeometry>
                </mxCell>
                <mxCell id="103" value="ProductionVM1" style="aspect=fixed;html=1;points=[];align=center;image;fontSize=12;image=img/lib/azure2/compute/Virtual_Machine.svg;rounded=1;labelBackgroundColor=none;strokeWidth=2;fontFamily=Lucida Console;fontColor=#CE9178;fillColor=#1A1A1A;gradientColor=none;" parent="1" vertex="1">
                    <mxGeometry x="786" y="440" width="69" height="64" as="geometry"/>
                </mxCell>
            </root>
        </mxGraphModel>
    </diagram>
</mxfile>